# xmcd
#
# Track frame offsets: 
#        150
#        14437
#        32433
#        48952
#        66169
#        75120
#        91076
#        106757
#        123244
#        138408
#        156277
#        168027
#        183342
#
# Disc length: 2692 seconds
#
# Revision: 0
# Processed by: cddbd v1.5.2PL0 Copyright (c) Steve Scherf et al.
# Submitted via: ExactAudioCopy v1.0b3
#
DISCID=8d0a820d
DTITLE=Tim Foust - The Best That I Could Do
DYEAR=2011
DGENRE=Country
TTITLE0=You're So Yesterday
TTITLE1=Everything Will Be Okay
TTITLE2=I've Seen
TTITLE3=Without You
TTITLE4=The Best That I Could Do
TTITLE5=On My Way Home
TTITLE6=Why Can't I Let You Go? (feat. Kelly Fitzgerald)
TTITLE7=I Dare You
TTITLE8=The Way The Story Goes
TTITLE9=A Thousand Times
TTITLE10=Campagne Taste (on a Beer Budget)
TTITLE11=Love, Love, Love
TTITLE12=The Land of the Free
EXTD=
EXTT0=
EXTT1=
EXTT2=
EXTT3=
EXTT4=
EXTT5=
EXTT6=
EXTT7=
EXTT8=
EXTT9=
EXTT10=
EXTT11=
EXTT12=
PLAYORDER=
